<mxfile host="65bd71144e">
    <diagram id="tTkzYthikH9ZpHAPBEqw" name="ページ1">
        <mxGraphModel dx="434" dy="450" grid="1" gridSize="10" guides="1" tooltips="1" connect="1" arrows="1" fold="1" page="1" pageScale="1" pageWidth="827" pageHeight="1169" math="0" shadow="0">
            <root>
                <mxCell id="0"/>
                <mxCell id="1" parent="0"/>
                <mxCell id="12" value="" style="group;strokeWidth=1;" parent="1" vertex="1" connectable="0">
                    <mxGeometry x="50" y="60" width="430" height="260" as="geometry"/>
                </mxCell>
                <mxCell id="2" value="" style="rounded=0;whiteSpace=wrap;html=1;strokeColor=default;" parent="12" vertex="1">
                    <mxGeometry width="430" height="260" as="geometry"/>
                </mxCell>
                <mxCell id="5" value="" style="group" parent="12" vertex="1" connectable="0">
                    <mxGeometry x="75" y="20" width="120" height="70" as="geometry"/>
                </mxCell>
                <mxCell id="4" value="Input Player Name" style="text;html=1;strokeColor=none;fillColor=none;align=center;verticalAlign=middle;whiteSpace=wrap;rounded=0;" parent="5" vertex="1">
                    <mxGeometry x="5" width="110" height="30" as="geometry"/>
                </mxCell>
                <mxCell id="3" value="" style="rounded=0;whiteSpace=wrap;html=1;fillColor=#f5f5f5;fontColor=#333333;strokeColor=#666666;" parent="5" vertex="1">
                    <mxGeometry y="30" width="120" height="40" as="geometry"/>
                </mxCell>
                <mxCell id="9" value="Search" style="rounded=1;html=1;shadow=0;dashed=0;whiteSpace=wrap;fontSize=18;fillColor=#666666;align=center;strokeColor=#4D4D4D;fontColor=#ffffff;" parent="12" vertex="1">
                    <mxGeometry x="230" y="50" width="105.5" height="40" as="geometry"/>
                </mxCell>
                <mxCell id="13" value="" style="rounded=0;whiteSpace=wrap;html=1;" parent="12" vertex="1">
                    <mxGeometry x="75" y="120" width="265" height="110" as="geometry"/>
                </mxCell>
            </root>
        </mxGraphModel>
    </diagram>
    <diagram id="UBXT6sbHdiYpDBhyY3sg" name="ページ2">
        <mxGraphModel dx="434" dy="450" grid="1" gridSize="10" guides="1" tooltips="1" connect="1" arrows="0" fold="1" page="1" pageScale="1" pageWidth="827" pageHeight="1169" math="0" shadow="0">
            <root>
                <mxCell id="0"/>
                <mxCell id="1" parent="0"/>
                <mxCell id="gYManerxKxG4PXIyMZNo-2" value="バックエンド" style="rounded=0;whiteSpace=wrap;html=1;fillColor=#dae8fc;strokeColor=#6c8ebf;" vertex="1" parent="1">
                    <mxGeometry x="180" y="160" width="120" height="60" as="geometry"/>
                </mxCell>
                <mxCell id="gYManerxKxG4PXIyMZNo-3" value="フロントエンド" style="rounded=0;whiteSpace=wrap;html=1;fillColor=#d5e8d4;strokeColor=#82b366;" vertex="1" parent="1">
                    <mxGeometry x="180" y="270" width="120" height="60" as="geometry"/>
                </mxCell>
                <mxCell id="gYManerxKxG4PXIyMZNo-4" value="ブラウザ" style="rounded=0;whiteSpace=wrap;html=1;fillColor=#e1d5e7;strokeColor=#9673a6;" vertex="1" parent="1">
                    <mxGeometry x="180" y="370" width="120" height="60" as="geometry"/>
                </mxCell>
                <mxCell id="gYManerxKxG4PXIyMZNo-7" value="" style="endArrow=classic;startArrow=classic;html=1;entryX=0.5;entryY=1;entryDx=0;entryDy=0;" edge="1" parent="1" source="gYManerxKxG4PXIyMZNo-3" target="gYManerxKxG4PXIyMZNo-2">
                    <mxGeometry width="50" height="50" relative="1" as="geometry">
                        <mxPoint x="200" y="260" as="sourcePoint"/>
                        <mxPoint x="250" y="230" as="targetPoint"/>
                    </mxGeometry>
                </mxCell>
                <mxCell id="gYManerxKxG4PXIyMZNo-8" value="" style="endArrow=classic;startArrow=classic;html=1;entryX=0.5;entryY=1;entryDx=0;entryDy=0;exitX=0.5;exitY=0;exitDx=0;exitDy=0;entryPerimeter=0;" edge="1" parent="1" source="gYManerxKxG4PXIyMZNo-2" target="gYManerxKxG4PXIyMZNo-14">
                    <mxGeometry width="50" height="50" relative="1" as="geometry">
                        <mxPoint x="250" y="280" as="sourcePoint"/>
                        <mxPoint x="240" y="130" as="targetPoint"/>
                    </mxGeometry>
                </mxCell>
                <mxCell id="gYManerxKxG4PXIyMZNo-9" value="" style="endArrow=classic;startArrow=classic;html=1;entryX=0.5;entryY=1;entryDx=0;entryDy=0;exitX=0.5;exitY=0;exitDx=0;exitDy=0;" edge="1" parent="1" source="gYManerxKxG4PXIyMZNo-4" target="gYManerxKxG4PXIyMZNo-3">
                    <mxGeometry width="50" height="50" relative="1" as="geometry">
                        <mxPoint x="260" y="290" as="sourcePoint"/>
                        <mxPoint x="260" y="250" as="targetPoint"/>
                    </mxGeometry>
                </mxCell>
                <mxCell id="gYManerxKxG4PXIyMZNo-10" value="Actor" style="shape=umlActor;verticalLabelPosition=bottom;verticalAlign=top;html=1;outlineConnect=0;" vertex="1" parent="1">
                    <mxGeometry x="225" y="460" width="30" height="60" as="geometry"/>
                </mxCell>
                <mxCell id="gYManerxKxG4PXIyMZNo-11" value="" style="endArrow=classic;startArrow=classic;html=1;entryX=0.5;entryY=1;entryDx=0;entryDy=0;" edge="1" parent="1" source="gYManerxKxG4PXIyMZNo-10" target="gYManerxKxG4PXIyMZNo-4">
                    <mxGeometry width="50" height="50" relative="1" as="geometry">
                        <mxPoint x="270" y="300" as="sourcePoint"/>
                        <mxPoint x="270" y="260" as="targetPoint"/>
                    </mxGeometry>
                </mxCell>
                <mxCell id="gYManerxKxG4PXIyMZNo-14" value="サーバ" style="shape=cylinder3;whiteSpace=wrap;html=1;boundedLbl=1;backgroundOutline=1;size=15;fillColor=#ffe6cc;strokeColor=#d79b00;" vertex="1" parent="1">
                    <mxGeometry x="210" y="30" width="60" height="80" as="geometry"/>
                </mxCell>
            </root>
        </mxGraphModel>
    </diagram>
</mxfile>